{
	"asset":{
		"generator":"Khronos glTF Blender I/O v4.0.44",
		"version":"2.0"
	},
	"extensionsUsed":[
		"KHR_materials_emissive_strength"
	],
	"scene":0,
	"scenes":[
		{
			"name":"Scene",
			"nodes":[
				4,
				5,
				6
			]
		}
	],
	"nodes":[
		{
			"mesh":0,
			"name":"Final_lambert1_0"
		},
		{
			"children":[
				0
			],
			"name":"Final"
		},
		{
			"children":[
				1
			],
			"name":"RootNode"
		},
		{
			"children":[
				2
			],
			"name":"78a9345b4b264479ae16e7fcb2ccb6b9.fbx",
			"rotation":[
				0.70710688829422,
				0,
				0,
				0.7071066498756409
			],
			"scale":[
				0.010000000707805157,
				0.010000000707805157,
				0.010000000707805157
			]
		},
		{
			"children":[
				3
			],
			"name":"Sketchfab_model",
			"rotation":[
				-0.70710688829422,
				0,
				0,
				0.7071066498756409
			],
			"scale":[
				21.276596069335938,
				21.27659797668457,
				21.27659797668457
			]
		},
		{
			"mesh":1,
			"name":"Text",
			"rotation":[
				0.7070429921150208,
				-0.009498484432697296,
				0.00949848536401987,
				0.7070429921150208
			],
			"scale":[
				0.15115033090114594,
				0.15115033090114594,
				0.15115030109882355
			],
			"translation":[
				-0.21945351362228394,
				1.9858752489089966,
				-0.24717861413955688
			]
		},
		{
			"mesh":2,
			"name":"Plane",
			"rotation":[
				0.7070294618606567,
				-0.010457714088261127,
				0.010457714088261127,
				0.7070294618606567
			],
			"scale":[
				0.2533832788467407,
				0.2533832788467407,
				0.2533832788467407
			],
			"translation":[
				0.22580502927303314,
				1.857309103012085,
				-0.24879854917526245
			]
		}
	],
	"materials":[
		{
			"emissiveFactor":[
				1,
				1,
				1
			],
			"emissiveTexture":{
				"index":0
			},
			"name":"lambert1",
			"normalTexture":{
				"index":1
			},
			"pbrMetallicRoughness":{
				"baseColorTexture":{
					"index":2
				},
				"metallicRoughnessTexture":{
					"index":3
				}
			}
		},
		{
			"doubleSided":true,
			"emissiveFactor":[
				1,
				0.2949865460395813,
				0.395813524723053
			],
			"name":"all",
			"pbrMetallicRoughness":{
				"baseColorFactor":[
					0,
					0,
					0,
					1
				]
			}
		},
		{
			"doubleSided":true,
			"emissiveFactor":[
				0.06818504631519318,
				0.27290788292884827,
				1
			],
			"extensions":{
				"KHR_materials_emissive_strength":{
					"emissiveStrength":3
				}
			},
			"name":"made",
			"pbrMetallicRoughness":{
				"baseColorFactor":[
					0,
					0,
					0,
					1
				]
			}
		},
		{
			"doubleSided":true,
			"emissiveFactor":[
				1,
				0.893783450126648,
				0.3029378056526184
			],
			"extensions":{
				"KHR_materials_emissive_strength":{
					"emissiveStrength":4.099999904632568
				}
			},
			"name":"by",
			"pbrMetallicRoughness":{
				"baseColorFactor":[
					0,
					0,
					0,
					1
				]
			}
		},
		{
			"doubleSided":true,
			"emissiveFactor":[
				0.32085174322128296,
				1,
				0.4076384902000427
			],
			"extensions":{
				"KHR_materials_emissive_strength":{
					"emissiveStrength":3.5999999046325684
				}
			},
			"name":"ber",
			"pbrMetallicRoughness":{
				"baseColorFactor":[
					0,
					0,
					0,
					1
				]
			}
		},
		{
			"doubleSided":true,
			"name":"black",
			"pbrMetallicRoughness":{
				"baseColorFactor":[
					0,
					0,
					0,
					1
				],
				"metallicFactor":0,
				"roughnessFactor":0.5
			}
		}
	],
	"meshes":[
		{
			"name":"Final_lambert1_0",
			"primitives":[
				{
					"attributes":{
						"POSITION":0,
						"NORMAL":1,
						"TEXCOORD_0":2
					},
					"indices":3,
					"material":0
				}
			]
		},
		{
			"name":"Text",
			"primitives":[
				{
					"attributes":{
						"POSITION":4,
						"NORMAL":5,
						"TEXCOORD_0":6
					},
					"indices":7,
					"material":1
				},
				{
					"attributes":{
						"POSITION":8,
						"NORMAL":9,
						"TEXCOORD_0":10
					},
					"indices":11,
					"material":2
				},
				{
					"attributes":{
						"POSITION":12,
						"NORMAL":13,
						"TEXCOORD_0":14
					},
					"indices":15,
					"material":3
				},
				{
					"attributes":{
						"POSITION":16,
						"NORMAL":17,
						"TEXCOORD_0":18
					},
					"indices":19,
					"material":4
				}
			]
		},
		{
			"name":"Plane",
			"primitives":[
				{
					"attributes":{
						"POSITION":20,
						"NORMAL":21,
						"TEXCOORD_0":22
					},
					"indices":23,
					"material":5
				}
			]
		}
	],
	"textures":[
		{
			"sampler":0,
			"source":0
		},
		{
			"sampler":0,
			"source":1
		},
		{
			"sampler":0,
			"source":2
		},
		{
			"sampler":0,
			"source":3
		}
	],
	"images":[
		{
			"mimeType":"image/jpeg",
			"name":"lambert1_emissive",
			"uri":"lambert1_emissive.jpg"
		},
		{
			"mimeType":"image/png",
			"name":"lambert1_normal",
			"uri":"lambert1_normal.png"
		},
		{
			"mimeType":"image/jpeg",
			"name":"lambert1_baseColor",
			"uri":"lambert1_baseColor.jpg"
		},
		{
			"mimeType":"image/png",
			"name":"lambert1_metallicRoughness",
			"uri":"lambert1_metallicRoughness.png"
		}
	],
	"accessors":[
		{
			"bufferView":0,
			"componentType":5126,
			"count":20683,
			"max":[
				7.077610015869141,
				10.595903396606445,
				5.551196575164795
			],
			"min":[
				-4.0127058029174805,
				2.87808895111084,
				-2.9568533897399902
			],
			"type":"VEC3"
		},
		{
			"bufferView":1,
			"componentType":5126,
			"count":20683,
			"type":"VEC3"
		},
		{
			"bufferView":2,
			"componentType":5126,
			"count":20683,
			"type":"VEC2"
		},
		{
			"bufferView":3,
			"componentType":5123,
			"count":89883,
			"type":"SCALAR"
		},
		{
			"bufferView":4,
			"componentType":5126,
			"count":149,
			"max":[
				5.585880756378174,
				0.07999999821186066,
				0
			],
			"min":[
				4.221251964569092,
				-0.07999999821186066,
				-0.727802038192749
			],
			"type":"VEC3"
		},
		{
			"bufferView":5,
			"componentType":5126,
			"count":149,
			"type":"VEC3"
		},
		{
			"bufferView":6,
			"componentType":5126,
			"count":149,
			"type":"VEC2"
		},
		{
			"bufferView":7,
			"componentType":5123,
			"count":372,
			"type":"SCALAR"
		},
		{
			"bufferView":8,
			"componentType":5126,
			"count":318,
			"max":[
				3.475254774093628,
				0.07999999821186066,
				-0.09097525477409363
			],
			"min":[
				0.6550218462944031,
				-0.07999999821186066,
				-0.727802038192749
			],
			"type":"VEC3"
		},
		{
			"bufferView":9,
			"componentType":5126,
			"count":318,
			"type":"VEC3"
		},
		{
			"bufferView":10,
			"componentType":5126,
			"count":318,
			"type":"VEC2"
		},
		{
			"bufferView":11,
			"componentType":5123,
			"count":828,
			"type":"SCALAR"
		},
		{
			"bufferView":12,
			"componentType":5126,
			"count":215,
			"max":[
				4.057496547698975,
				0.07999999821186066,
				0.909024715423584
			],
			"min":[
				1.9650654792785645,
				-0.07999999821186066,
				0.272197961807251
			],
			"type":"VEC3"
		},
		{
			"bufferView":13,
			"componentType":5126,
			"count":215,
			"type":"VEC3"
		},
		{
			"bufferView":14,
			"componentType":5126,
			"count":215,
			"type":"VEC2"
		},
		{
			"bufferView":15,
			"componentType":5123,
			"count":540,
			"type":"SCALAR"
		},
		{
			"bufferView":16,
			"componentType":5126,
			"count":437,
			"max":[
				5.585880756378174,
				0.07999999821186066,
				1.909024715423584
			],
			"min":[
				1.3100436925888062,
				-0.07999999821186066,
				1.272197961807251
			],
			"type":"VEC3"
		},
		{
			"bufferView":17,
			"componentType":5126,
			"count":437,
			"type":"VEC3"
		},
		{
			"bufferView":18,
			"componentType":5126,
			"count":437,
			"type":"VEC2"
		},
		{
			"bufferView":19,
			"componentType":5123,
			"count":1092,
			"type":"SCALAR"
		},
		{
			"bufferView":20,
			"componentType":5126,
			"count":4,
			"max":[
				1.8920559883117676,
				2.5456740715412707e-08,
				0.74394690990448
			],
			"min":[
				-1.5534050464630127,
				5.989820639484833e-09,
				-1.0660781860351562
			],
			"type":"VEC3"
		},
		{
			"bufferView":21,
			"componentType":5126,
			"count":4,
			"type":"VEC3"
		},
		{
			"bufferView":22,
			"componentType":5126,
			"count":4,
			"type":"VEC2"
		},
		{
			"bufferView":23,
			"componentType":5123,
			"count":6,
			"type":"SCALAR"
		}
	],
	"bufferViews":[
		{
			"buffer":0,
			"byteLength":248196,
			"byteOffset":0,
			"target":34962
		},
		{
			"buffer":0,
			"byteLength":248196,
			"byteOffset":248196,
			"target":34962
		},
		{
			"buffer":0,
			"byteLength":165464,
			"byteOffset":496392,
			"target":34962
		},
		{
			"buffer":0,
			"byteLength":179766,
			"byteOffset":661856,
			"target":34963
		},
		{
			"buffer":0,
			"byteLength":1788,
			"byteOffset":841624,
			"target":34962
		},
		{
			"buffer":0,
			"byteLength":1788,
			"byteOffset":843412,
			"target":34962
		},
		{
			"buffer":0,
			"byteLength":1192,
			"byteOffset":845200,
			"target":34962
		},
		{
			"buffer":0,
			"byteLength":744,
			"byteOffset":846392,
			"target":34963
		},
		{
			"buffer":0,
			"byteLength":3816,
			"byteOffset":847136,
			"target":34962
		},
		{
			"buffer":0,
			"byteLength":3816,
			"byteOffset":850952,
			"target":34962
		},
		{
			"buffer":0,
			"byteLength":2544,
			"byteOffset":854768,
			"target":34962
		},
		{
			"buffer":0,
			"byteLength":1656,
			"byteOffset":857312,
			"target":34963
		},
		{
			"buffer":0,
			"byteLength":2580,
			"byteOffset":858968,
			"target":34962
		},
		{
			"buffer":0,
			"byteLength":2580,
			"byteOffset":861548,
			"target":34962
		},
		{
			"buffer":0,
			"byteLength":1720,
			"byteOffset":864128,
			"target":34962
		},
		{
			"buffer":0,
			"byteLength":1080,
			"byteOffset":865848,
			"target":34963
		},
		{
			"buffer":0,
			"byteLength":5244,
			"byteOffset":866928,
			"target":34962
		},
		{
			"buffer":0,
			"byteLength":5244,
			"byteOffset":872172,
			"target":34962
		},
		{
			"buffer":0,
			"byteLength":3496,
			"byteOffset":877416,
			"target":34962
		},
		{
			"buffer":0,
			"byteLength":2184,
			"byteOffset":880912,
			"target":34963
		},
		{
			"buffer":0,
			"byteLength":48,
			"byteOffset":883096,
			"target":34962
		},
		{
			"buffer":0,
			"byteLength":48,
			"byteOffset":883144,
			"target":34962
		},
		{
			"buffer":0,
			"byteLength":32,
			"byteOffset":883192,
			"target":34962
		},
		{
			"buffer":0,
			"byteLength":12,
			"byteOffset":883224,
			"target":34963
		}
	],
	"samplers":[
		{
			"magFilter":9729,
			"minFilter":9987
		}
	],
	"buffers":[
		{
			"byteLength":883236,
			"uri":"desk.bin"
		}
	]
}
